<?xml version="1.0" standalone="no"?>
<!DOCTYPE svg PUBLIC "-//W3C//DTD SVG 20010904//EN"
 "http://www.w3.org/TR/2001/REC-SVG-20010904/DTD/svg10.dtd">
<svg version="1.0" xmlns="http://www.w3.org/2000/svg"
 width="664.000000pt" height="664.000000pt" viewBox="0 0 664.000000 664.000000"
 preserveAspectRatio="xMidYMid meet">
<metadata>
Created by potrace 1.14, written by Peter Selinger 2001-2017
</metadata>
<g transform="translate(0.000000,664.000000) scale(0.100000,-0.100000)"
fill="#000000" stroke="none">
<path d="M2758 6635 c-1 -1 -21 -6 -43 -9 -65 -10 -74 -12 -81 -19 -4 -4 -13
-7 -20 -7 -24 0 -128 -53 -184 -94 -70 -51 -144 -127 -185 -191 -18 -27 -81
-144 -140 -260 -59 -115 -136 -264 -170 -330 -34 -66 -118 -228 -185 -360 -68
-132 -172 -334 -231 -450 -60 -115 -139 -271 -176 -345 -38 -74 -70 -137 -73
-140 -3 -3 -33 -61 -68 -130 -34 -69 -82 -162 -107 -207 -24 -46 -41 -83 -38
-83 3 0 1 -6 -5 -12 -13 -16 -51 -88 -237 -453 -82 -159 -177 -344 -211 -410
-97 -188 -240 -467 -319 -621 -40 -78 -76 -148 -81 -155 -5 -8 -9 -20 -10 -27
-1 -7 -8 -20 -15 -28 -17 -20 -95 -183 -112 -236 -51 -150 -59 -326 -23 -493
20 -88 117 -305 138 -305 4 0 8 -6 8 -12 0 -17 123 -147 180 -190 25 -19 115
-79 200 -134 85 -54 157 -102 158 -106 2 -5 8 -8 13 -8 7 0 37 -19 148 -92 14
-10 33 -21 41 -25 8 -4 20 -12 27 -17 38 -33 48 -41 50 -39 3 3 78 -45 303
-192 164 -107 241 -157 262 -170 9 -5 68 -44 132 -85 161 -105 182 -117 256
-144 194 -72 382 -66 561 20 57 28 152 94 182 128 10 12 32 35 48 53 58 65 64
75 422 773 49 96 129 252 177 345 48 94 134 260 190 370 95 184 146 283 345
670 40 77 134 262 210 410 76 149 163 320 195 380 31 61 91 175 131 255 41 80
77 147 82 148 4 2 7 9 7 15 0 7 20 50 45 97 25 47 63 123 86 170 23 47 47 92
53 100 7 8 25 44 41 80 17 36 32 67 35 70 3 3 34 64 70 135 36 72 68 132 73
133 4 2 7 11 7 20 0 8 6 23 14 31 14 17 59 135 71 186 4 17 9 39 12 50 3 11 7
72 8 135 3 101 -4 169 -29 275 -14 59 -61 171 -84 198 -8 9 -12 17 -8 17 10 0
-78 117 -127 168 -62 64 -82 80 -247 187 -80 52 -149 98 -155 102 -5 5 -40 27
-77 50 l-66 41 -64 -124 c-35 -68 -77 -152 -95 -186 l-31 -63 141 -92 c78 -50
147 -96 154 -102 7 -6 14 -11 17 -11 12 0 105 -67 144 -104 114 -108 160 -298
108 -444 -13 -33 -83 -175 -106 -212 -5 -8 -18 -33 -28 -55 -10 -22 -60 -121
-112 -220 -116 -225 -236 -459 -375 -730 -59 -115 -142 -277 -185 -360 -43
-82 -121 -235 -175 -340 -54 -104 -137 -266 -185 -360 -188 -365 -259 -504
-315 -615 -32 -63 -62 -116 -67 -118 -4 -2 -8 -10 -8 -17 0 -8 -11 -34 -24
-57 -13 -24 -72 -137 -131 -253 -59 -115 -144 -280 -188 -365 -43 -85 -113
-220 -154 -300 -40 -80 -78 -146 -83 -148 -6 -2 -10 -9 -10 -15 0 -13 -39 -48
-90 -83 -71 -47 -191 -61 -279 -32 -41 13 -135 66 -139 79 -2 5 -8 9 -12 9 -5
0 -69 39 -142 87 -73 49 -141 92 -151 98 -48 27 -402 261 -405 267 -2 5 -8 8
-12 8 -5 0 -82 48 -172 106 -189 124 -340 222 -418 272 -112 72 -177 161 -206
280 -11 49 -12 150 -1 197 3 11 7 27 9 35 1 8 5 17 8 20 3 3 32 59 65 125 33
66 76 150 97 188 20 37 34 67 31 67 -3 0 -1 6 5 12 13 17 217 412 463 898 52
102 96 187 99 190 3 3 29 55 59 115 30 61 61 118 69 128 9 9 12 17 7 17 -4 0
-3 6 2 13 6 6 57 102 113 212 56 110 142 277 190 370 48 94 136 265 195 380
59 116 145 282 190 370 45 88 126 246 180 350 53 105 102 196 107 203 6 6 7
12 2 12 -5 0 -4 4 1 8 6 4 49 84 96 177 134 265 156 303 191 339 131 133 310
138 485 13 27 -21 55 -37 60 -37 6 0 16 -7 24 -16 7 -8 29 -24 48 -35 43 -23
74 -42 81 -49 3 -3 27 -20 54 -37 l49 -31 45 91 c25 51 48 94 51 97 8 7 91
173 91 182 0 7 -48 40 -252 171 -183 119 -239 146 -358 178 -41 10 -223 22
-232 14z"/>
<path d="M4270 6625 c-67 -15 -138 -41 -157 -56 -7 -6 -13 -9 -13 -5 0 3 -26
-11 -57 -31 -69 -45 -168 -141 -210 -203 -39 -59 -233 -430 -515 -990 -51
-102 -96 -187 -99 -190 -3 -3 -46 -86 -96 -185 -51 -99 -121 -236 -157 -305
-65 -124 -94 -183 -96 -198 -1 -4 -6 -12 -11 -19 -6 -6 -35 -60 -65 -120 -179
-348 -293 -571 -344 -668 -32 -60 -110 -213 -175 -340 -150 -293 -299 -584
-385 -750 -98 -190 -216 -425 -233 -465 -19 -43 -46 -160 -52 -220 -2 -25 -4
-47 -6 -50 -1 -3 -1 -9 0 -14 1 -4 4 -46 6 -92 2 -47 6 -88 9 -92 2 -4 7 -24
10 -45 9 -56 50 -167 86 -233 75 -137 170 -240 300 -325 30 -20 104 -68 164
-108 60 -39 110 -71 112 -71 3 0 27 -16 54 -35 27 -19 52 -35 54 -35 6 0 186
360 186 370 0 4 -37 31 -82 61 -288 185 -344 224 -380 262 -39 41 -88 128
-103 184 -13 46 -12 175 1 221 12 40 203 422 223 446 5 6 9 13 10 16 0 10 15
45 20 50 3 3 39 70 79 150 164 324 196 385 204 388 4 2 8 9 8 15 0 7 13 37 29
67 37 70 84 164 85 170 1 3 4 10 8 16 9 14 85 160 223 429 65 127 150 293 190
370 40 77 130 253 201 390 70 138 165 322 210 410 46 88 123 239 171 335 48
96 90 177 93 180 3 3 47 88 99 190 249 493 290 566 334 607 58 52 85 67 172
89 26 7 92 6 130 -2 31 -6 146 -61 155 -73 3 -4 12 -10 20 -14 8 -4 62 -38
120 -77 58 -39 112 -73 120 -77 8 -4 17 -9 20 -13 3 -3 30 -21 60 -40 30 -19
57 -38 58 -42 2 -5 8 -8 12 -8 11 0 554 -352 558 -362 2 -5 8 -8 13 -8 9 0 88
-49 99 -60 3 -4 23 -17 45 -30 110 -65 281 -185 311 -218 35 -38 90 -137 100
-182 12 -53 12 -152 0 -203 -7 -29 -49 -125 -93 -213 -45 -87 -105 -206 -135
-264 -29 -58 -56 -106 -60 -108 -5 -2 -8 -12 -8 -23 0 -10 -4 -19 -10 -19 -5
0 -10 -9 -10 -19 0 -11 -3 -21 -7 -23 -5 -1 -42 -70 -84 -153 -42 -82 -108
-211 -146 -285 -39 -74 -108 -209 -154 -300 -45 -91 -87 -166 -91 -168 -4 -2
-8 -11 -8 -21 0 -9 -4 -21 -9 -26 -4 -6 -64 -118 -131 -250 -68 -132 -155
-303 -195 -380 -131 -254 -435 -845 -537 -1045 -34 -69 -77 -151 -95 -182 -18
-32 -29 -58 -25 -58 4 0 3 -4 -3 -8 -5 -4 -30 -45 -53 -92 -99 -194 -122 -240
-121 -246 0 -4 -3 -10 -8 -13 -4 -3 -35 -60 -68 -126 -85 -169 -119 -216 -183
-259 -60 -40 -110 -56 -174 -58 -103 -2 -142 15 -386 175 -106 70 -198 127
-205 127 -7 0 -52 -82 -101 -180 -87 -175 -89 -181 -71 -200 10 -11 24 -20 32
-20 7 0 21 -9 30 -20 10 -11 21 -20 25 -20 4 0 74 -44 155 -97 81 -53 178
-112 214 -129 127 -63 285 -89 414 -69 57 9 185 47 185 55 0 4 6 7 14 7 26 0
155 94 214 158 57 60 175 250 188 303 4 12 10 22 15 22 5 0 9 9 9 19 0 11 3
21 8 23 4 1 50 89 102 193 52 105 97 192 100 195 3 3 43 79 89 170 81 160 192
376 351 685 112 217 241 468 370 720 62 121 121 235 132 253 11 17 16 32 11
32 -4 0 -3 4 2 8 6 4 27 39 46 77 74 148 111 221 119 235 5 8 42 80 82 160 40
80 75 147 78 150 3 3 43 80 90 172 47 92 116 227 153 300 351 682 357 697 352
913 -3 141 -7 167 -41 276 -28 90 -55 147 -91 196 -12 17 -23 35 -23 40 0 29
-154 180 -240 236 -36 23 -67 44 -70 47 -3 3 -14 10 -25 17 -30 18 -166 105
-298 191 -64 42 -190 124 -280 181 -89 58 -215 140 -280 183 -64 43 -121 78
-126 78 -4 0 -16 9 -26 20 -10 11 -21 20 -25 20 -4 0 -62 36 -129 80 -67 44
-126 80 -131 80 -6 0 -10 4 -10 8 0 11 -149 81 -198 93 -20 5 -46 12 -57 15
-43 12 -232 12 -285 -1z"/>
</g>
</svg>
